<svg xmlns="http://www.w3.org/2000/svg" width="93" height="2" viewBox="0 0 93 2">
    <g fill="none" fill-rule="evenodd">
        <g fill="#FF5D46" fill-rule="nonzero">
            <g>
                <g>
                    <g>
                        <path d="M46.25-44.75v2c0 .276.224.5.5.5s.5-.224.5-.5v-2c0-.276-.224-.5-.5-.5s-.5.224-.5.5zm0 5v2c0 .276.224.5.5.5s.5-.224.5-.5v-2c0-.276-.224-.5-.5-.5s-.5.224-.5.5zm0 5v2c0 .276.224.5.5.5s.5-.224.5-.5v-2c0-.276-.224-.5-.5-.5s-.5.224-.5.5zm0 5v2c0 .276.224.5.5.5s.5-.224.5-.5v-2c0-.276-.224-.5-.5-.5s-.5.224-.5.5zm0 5v2c0 .276.224.5.5.5s.5-.224.5-.5v-2c0-.276-.224-.5-.5-.5s-.5.224-.5.5zm0 5v2c0 .276.224.5.5.5s.5-.224.5-.5v-2c0-.276-.224-.5-.5-.5s-.5.224-.5.5zm0 5v2c0 .276.224.5.5.5s.5-.224.5-.5v-2c0-.276-.224-.5-.5-.5s-.5.224-.5.5zm0 5v2c0 .276.224.5.5.5s.5-.224.5-.5v-2c0-.276-.224-.5-.5-.5s-.5.224-.5.5zm0 5v2c0 .276.224.5.5.5s.5-.224.5-.5v-2c0-.276-.224-.5-.5-.5s-.5.224-.5.5zm0 5v2c0 .276.224.5.5.5s.5-.224.5-.5v-2c0-.276-.224-.5-.5-.5s-.5.224-.5.5zm0 5v2c0 .276.224.5.5.5s.5-.224.5-.5v-2c0-.276-.224-.5-.5-.5s-.5.224-.5.5zm0 5v2c0 .276.224.5.5.5s.5-.224.5-.5v-2c0-.276-.224-.5-.5-.5s-.5.224-.5.5zm0 5v2c0 .276.224.5.5.5s.5-.224.5-.5v-2c0-.276-.224-.5-.5-.5s-.5.224-.5.5zm0 5v2c0 .276.224.5.5.5s.5-.224.5-.5v-2c0-.276-.224-.5-.5-.5s-.5.224-.5.5zm0 5v2c0 .276.224.5.5.5s.5-.224.5-.5v-2c0-.276-.224-.5-.5-.5s-.5.224-.5.5zm0 5v2c0 .276.224.5.5.5s.5-.224.5-.5v-2c0-.276-.224-.5-.5-.5s-.5.224-.5.5zm0 5v2c0 .276.224.5.5.5s.5-.224.5-.5v-2c0-.276-.224-.5-.5-.5s-.5.224-.5.5zm0 5v2c0 .276.224.5.5.5s.5-.224.5-.5v-2c0-.276-.224-.5-.5-.5s-.5.224-.5.5zm0 5v2h1v-2c0-.276-.224-.5-.5-.5s-.5.224-.5.5z" transform="translate(-1424 -885) translate(1281 684) translate(21 192) translate(122 9) rotate(-90 46.75 1)"/>
                    </g>
                </g>
            </g>
        </g>
    </g>
</svg>
