<?xml version="1.0" encoding="UTF-8"?>
<svg width="118px" height="118px" viewBox="0 0 118 118" version="1.1" xmlns="http://www.w3.org/2000/svg" xmlns:xlink="http://www.w3.org/1999/xlink">
    <!-- Generator: sketchtool 55.1 (78136) - https://sketchapp.com -->
    <title>190BEC11-EA19-403A-BD15-FD757EF67F66</title>
    <desc>Created with sketchtool.</desc>
    <defs>
        <linearGradient x1="34.725918%" y1="0%" x2="34.725918%" y2="81.2298244%" id="linearGradient-1">
            <stop stop-color="#92D0FF" offset="0%"></stop>
            <stop stop-color="#189BFF" offset="100%"></stop>
        </linearGradient>
        <linearGradient x1="42.1293561%" y1="7.63685266%" x2="42.1293561%" y2="100%" id="linearGradient-2">
            <stop stop-color="#FFFFFF" offset="0%"></stop>
            <stop stop-color="#189BFF" offset="100%"></stop>
        </linearGradient>
        <linearGradient x1="50%" y1="0%" x2="50%" y2="107.548342%" id="linearGradient-3">
            <stop stop-color="#EAF6FF" offset="0%"></stop>
            <stop stop-color="#40ACFF" offset="100%"></stop>
        </linearGradient>
    </defs>
    <g id="Symbols" stroke="none" stroke-width="1" fill="none" fill-rule="evenodd" opacity="0.459999979">
        <g id="icn_report">
            <g transform="translate(7.000000, 1.000000)">
                <path d="M4,16 L58.7159855,16 C59.8089596,16 60.8543306,16.4472444 61.6090928,17.2377671 L80.7232768,37.2575798 C80.9008939,37.4436123 81,37.6909301 81,37.948138 L81,113 C81,115.209139 79.209139,117 77,117 L4,117 C1.790861,117 2.705415e-16,115.209139 0,113 L0,20 C-2.705415e-16,17.790861 1.790861,16 4,16 Z" id="Rectangle" fill="url(#linearGradient-1)"></path>
                <path d="M22,0 L76.7159855,0 C77.8089596,-2.00776071e-16 78.8543306,0.447244364 79.6090928,1.23776713 L98.7232768,21.2575798 C98.9008939,21.4436123 99,21.6909301 99,21.948138 L99,97 C99,99.209139 97.209139,101 95,101 L22,101 C19.790861,101 18,99.209139 18,97 L18,4 C18,1.790861 19.790861,4.05812251e-16 22,0 Z" id="Rectangle" fill="url(#linearGradient-2)"></path>
                <path d="M57.1525362,45.6212113 L64.2332174,28.9949519 L72.8234441,51.3359346 L77.3916893,38.3947433 L79.6505812,43.8935274 L88,43.8935274 C88.8284271,43.8935274 89.5,43.2219545 89.5,42.3935274 C89.5,41.5651003 88.8284271,40.8935274 88,40.8935274 L81.6614556,40.8935274 L77.1795258,29.9832381 L72.7031892,42.6640654 L64.3751819,21.0050481 L56.6409827,39.1658435 L50.2768817,29.0322688 L43.1423936,40.8935274 L30,40.8935274 C29.1715729,40.8935274 28.5,41.5651003 28.5,42.3935274 C28.5,43.2219545 29.1715729,43.8935274 30,43.8935274 L44.8387893,43.8935274 L50.3320241,34.760892 L57.1525362,45.6212113 Z" id="Path" fill="#0085EA" fill-rule="nonzero"></path>
                <path d="M78.7167952,0.362695739 L99.0868227,21.3027162 C99.4719219,21.6985912 99.4631864,22.3316959 99.0673113,22.7167952 C98.8806301,22.8983949 98.6304663,23 98.3700275,23 L81,23 C78.790861,23 77,21.209139 77,19 L77,1.05997954 C77,0.507694792 77.4477153,0.0599795418 78,0.0599795418 C78.2700008,0.0599795418 78.528528,0.169160492 78.7167952,0.362695739 Z" id="Rectangle-Copy-4" fill="url(#linearGradient-3)"></path>
                <path d="M29,64.5 L77,64.5 C77.8284271,64.5 78.5,63.8284271 78.5,63 C78.5,62.1715729 77.8284271,61.5 77,61.5 L29,61.5 C28.1715729,61.5 27.5,62.1715729 27.5,63 C27.5,63.8284271 28.1715729,64.5 29,64.5 Z" id="Path-2" fill="#0085EA" fill-rule="nonzero"></path>
                <path d="M29,73.5 L52,73.5 C52.8284271,73.5 53.5,72.8284271 53.5,72 C53.5,71.1715729 52.8284271,70.5 52,70.5 L29,70.5 C28.1715729,70.5 27.5,71.1715729 27.5,72 C27.5,72.8284271 28.1715729,73.5 29,73.5 Z" id="Path-2-Copy" fill="#0085EA" fill-rule="nonzero"></path>
                <path d="M30,84.5 L62.3938546,84.5 C63.2222817,84.5 63.8938546,83.8284271 63.8938546,83 C63.8938546,82.1715729 63.2222817,81.5 62.3938546,81.5 L30,81.5 C29.1715729,81.5 28.5,82.1715729 28.5,83 C28.5,83.8284271 29.1715729,84.5 30,84.5 Z" id="Path-2-Copy-2" fill="#0085EA" fill-rule="nonzero"></path>
            </g>
        </g>
    </g>
</svg>