<?xml version="1.0" encoding="UTF-8"?>
<svg width="118px" height="118px" viewBox="0 0 118 118" version="1.1" xmlns="http://www.w3.org/2000/svg" xmlns:xlink="http://www.w3.org/1999/xlink">
    <!-- Generator: sketchtool 55.1 (78136) - https://sketchapp.com -->
    <title>73A29D7E-A2A8-4C26-BFFE-8511DD5CEC13</title>
    <desc>Created with sketchtool.</desc>
    <defs>
        <linearGradient x1="50%" y1="24.0282706%" x2="50%" y2="100%" id="linearGradient-1">
            <stop stop-color="#40ACFF" offset="0%"></stop>
            <stop stop-color="#FFFFFF" offset="100%"></stop>
        </linearGradient>
        <linearGradient x1="50%" y1="16.6341146%" x2="50%" y2="110.532407%" id="linearGradient-2">
            <stop stop-color="#189BFF" offset="0%"></stop>
            <stop stop-color="#FFFFFF" offset="100%"></stop>
        </linearGradient>
    </defs>
    <g id="Symbols" stroke="none" stroke-width="1" fill="none" fill-rule="evenodd" opacity="0.300000012">
        <g id="icn_patients">
            <g transform="translate(3.000000, 0.000000)">
                <path d="M32.000091,19 C38.3441498,19 43.4870256,24.1428758 43.4870256,30.4869346 L43.4870256,37.068621 C43.4870256,43.4126798 38.3441498,48.5555556 32.000091,48.5555556 C25.6560323,48.5555556 20.5131565,43.4126798 20.5131565,37.068621 L20.5131565,30.4869346 C20.5131565,24.1428758 25.6560323,19 32.000091,19 Z M22.2685818,52.7777778 L41.7314182,52.7777778 C52.0231858,52.7777778 60.6347812,60.5883008 61.6364643,70.8312062 L64,95 L-1.14241949e-13,95 L2.36353569,70.8312062 C3.3652188,60.5883008 11.9768142,52.7777778 22.2685818,52.7777778 Z" id="Combined-Shape" fill="url(#linearGradient-1)" opacity="0.600000024"></path>
                <path d="M64.5982906,0 C74.3600416,-1.79320456e-15 82.2735043,7.91346271 82.2735043,17.6752137 L82.2735043,25.2071393 C82.2735043,34.9688902 74.3600416,42.8823529 64.5982906,42.8823529 C54.8365396,42.8823529 46.9230769,34.9688902 46.9230769,25.2071393 L46.9230769,17.6752137 C46.9230769,7.91346271 54.8365396,1.79320456e-15 64.5982906,0 Z M49.3582242,48.4411765 L80.6417758,48.4411765 C95.0074655,48.4411765 107.042494,59.31298 108.497741,73.6047714 L112,108 L18,108 L21.5022589,73.6047714 C22.9575059,59.31298 34.9925345,48.4411765 49.3582242,48.4411765 Z" id="Combined-Shape" fill="url(#linearGradient-2)"></path>
                <path d="M65,64.7686815 C64.4384421,63.497614 62.4697813,60 59.5100335,60 C55.2844287,60 53.4864593,63.7659767 54.1258044,67.7033296 C55.460286,75.9216264 65,81 65,81 C65,81 74.539714,75.9216264 75.8741956,67.7033296 C76.5135407,63.7659767 74.7155713,60 70.4899665,60 C67.5302459,60 65.5615579,63.497614 65,64.7686815 Z" id="Fill-1" fill="#FFFFFF"></path>
            </g>
        </g>
    </g>
</svg>