<svg xmlns="http://www.w3.org/2000/svg" width="42" height="42" viewBox="0 0 42 42">
    <g fill="none" fill-rule="evenodd">
        <g>
            <rect width="42" height="42" fill="#EDF1F5" rx="8" transform="matrix(-1 0 0 1 42 0)"/>
            <path fill="#6D7884" d="M22.343 15.293L28 20.95l-.026.024L28 21l-5.657 5.657c-.39.39-1.024.39-1.414 0-.39-.39-.39-1.024 0-1.414l3.267-3.269H15c-.552 0-1-.447-1-1 0-.552.448-1 1-1h9.196l-3.267-3.267c-.39-.39-.39-1.024 0-1.414.39-.39 1.024-.39 1.414 0z"/>
        </g>
    </g>
</svg>
