<svg xmlns="http://www.w3.org/2000/svg" xmlns:xlink="http://www.w3.org/1999/xlink" width="198" height="140" viewBox="0 0 198 140">
    <defs>
        <path id="prefix__a" d="M188 0l.002 121.841C168.036 109.9 133.393 102 94 102c-39.394 0-74.037 7.9-94.003 19.842L0 0h188z"/>
        <path id="prefix__e" d="M26 0h62.376c1.116 0 2.18.465 2.937 1.284l21.624 23.38c.683.74 1.063 1.71 1.063 2.716V117c0 2.21-1.79 4-4 4H24c-2.21 0-4-1.79-4-4V6c0-3.314 2.686-6 6-6z"/>
        <path id="prefix__f" d="M26 0h61.577c1.629 0 3.187.662 4.318 1.834l20.423 21.17c1.08 1.119 1.682 2.612 1.682 4.166V110c0 3.314-2.686 6-6 6H26c-3.314 0-6-2.686-6-6V6c0-3.314 2.686-6 6-6z"/>
        <path id="prefix__i" d="M102 35c12.703 0 23 10.297 23 23s-10.297 23-23 23-23-10.297-23-23 10.297-23 23-23zm0 2c-11.598 0-21 9.402-21 21s9.402 21 21 21 21-9.402 21-21-9.402-21-21-21zm-5.657 13.929L102 56.586l5.658-5.657c.39-.39 1.024-.39 1.414 0 .39.39.39 1.024 0 1.414l-5.657 5.658 5.657 5.656c.39.39.39 1.024 0 1.414-.39.39-1.024.39-1.414 0l-5.658-5.656-5.656 5.656c-.39.39-1.024.39-1.414 0-.39-.39-.39-1.024 0-1.414L100.585 58l-5.656-5.658c-.39-.39-.39-1.024 0-1.414.39-.39 1.024-.39 1.414 0z"/>
        <filter id="prefix__c" width="117.3%" height="126.4%" x="-8.6%" y="-14.6%" filterUnits="objectBoundingBox">
            <feOffset dy="-2" in="SourceAlpha" result="shadowOffsetOuter1"/>
            <feGaussianBlur in="shadowOffsetOuter1" result="shadowBlurOuter1" stdDeviation="6"/>
            <feColorMatrix in="shadowBlurOuter1" values="0 0 0 0 0.392156863 0 0 0 0 0.643137255 0 0 0 0 0.952941176 0 0 0 0.563865822 0"/>
        </filter>
        <filter id="prefix__h" width="154.3%" height="154.3%" x="-27.2%" y="-25%" filterUnits="objectBoundingBox">
            <feOffset dy="1" in="SourceAlpha" result="shadowOffsetOuter1"/>
            <feGaussianBlur in="shadowOffsetOuter1" result="shadowBlurOuter1" stdDeviation="4"/>
            <feColorMatrix in="shadowBlurOuter1" values="0 0 0 0 0.388235294 0 0 0 0 0.639215686 0 0 0 0 0.952941176 0 0 0 1 0"/>
        </filter>
        <ellipse id="prefix__d" cx="95" cy="174" rx="110" ry="72"/>
    </defs>
    <g fill="none" fill-rule="evenodd" transform="translate(5 10)">
        <mask id="prefix__b" fill="#fff">
            <use xlink:href="#prefix__a"/>
        </mask>
        <g fill="#000" mask="url(#prefix__b)">
            <use filter="url(#prefix__c)" xlink:href="#prefix__d"/>
        </g>
        <g mask="url(#prefix__b)">
            <g transform="translate(35)">
                <path fill="#C0D7FC" d="M6 23h67.543c1.63 0 3.19.663 4.32 1.836l22.457 23.302c1.078 1.118 1.68 2.61 1.68 4.164V143c0 3.314-2.686 6-6 6H6c-3.314 0-6-2.686-6-6V29c0-3.314 2.686-6 6-6z"/>
                <use fill="#FFF" xlink:href="#prefix__e"/>
                <mask id="prefix__g" fill="#fff">
                    <use xlink:href="#prefix__f"/>
                </mask>
                <use fill="#86AFF4" xlink:href="#prefix__f"/>
                <path fill="#C0D7FC" d="M90.728-6.164l28.686 30.479c.378.402.36 1.035-.043 1.413-.186.175-.43.272-.685.272H93c-2.21 0-4-1.79-4-4V-5.478c0-.553.448-1 1-1 .276 0 .54.113.728.314z" mask="url(#prefix__g)"/>
            </g>
        </g>
        <g mask="url(#prefix__b)">
            <use fill="#000" filter="url(#prefix__h)" xlink:href="#prefix__i"/>
            <use fill="#FFF" xlink:href="#prefix__i"/>
        </g>
    </g>
</svg>
