<svg xmlns="http://www.w3.org/2000/svg" width="28" height="28" viewBox="0 0 28 28">
    <defs>
        <linearGradient id="a" x1="50%" x2="50%" y1="12.178%" y2="100%">
            <stop offset="0%" stop-color="#189BFF"/>
            <stop offset="100%" stop-color="#70CDFF"/>
        </linearGradient>
    </defs>
    <g fill="none" fill-rule="evenodd">
        <circle cx="14" cy="14" r="14" fill="url(#a)"/>
        <path fill="#FFF" d="M17.793 9.293a1 1 0 0 1 1.414 0l.707.707a1 1 0 0 1 0 1.414l-7.778 7.778a1 1 0 0 1-1.414 0l-.707-.707a1 1 0 0 1 0-1.414zm-8.379 4.106l.707.708a1 1 0 0 1 0 1.414l-.707.707a1 1 0 0 1-1.414 0l-.707-.707a1 1 0 0 1 0-1.414L8 13.399a1 1 0 0 1 1.414 0z"/>
    </g>
</svg>
