<svg xmlns="http://www.w3.org/2000/svg" width="32" height="32" viewBox="0 0 32 32">
    <g fill="none" fill-rule="evenodd">
        <g>
            <g>
                <g>
                    <g>
                        <path d="M0 0H32V32H0z" transform="translate(-1133 -1612) translate(0 814) translate(116 778) translate(1017 20)"/>
                        <path fill="#4D5661" d="M5.71 4.292L16.05 14.634l10.24-10.238c.39-.39 1.024-.39 1.414 0l.003.003c.39.39.39 1.024 0 1.414l-10.24 10.238 10.136 10.136c.39.39.39 1.024 0 1.414l-.003.003c-.39.39-1.024.39-1.414 0L16.051 17.468 5.813 27.708c-.39.39-1.024.39-1.414 0l-.003-.003c-.39-.39-.39-1.024 0-1.414l10.238-10.24L4.292 5.71c-.39-.39-.39-1.024 0-1.414l.003-.003c.39-.39 1.024-.39 1.414 0z" transform="translate(-1133 -1612) translate(0 814) translate(116 778) translate(1017 20)"/>
                    </g>
                </g>
            </g>
        </g>
    </g>
</svg>
