<svg xmlns="http://www.w3.org/2000/svg" xmlns:xlink="http://www.w3.org/1999/xlink" width="118" height="118" viewBox="0 0 118 118">
    <defs>
        <linearGradient id="a" x1="34.726%" x2="34.726%" y1="0%" y2="81.23%">
            <stop offset="0%" stop-color="#92D0FF"/>
            <stop offset="100%" stop-color="#189BFF"/>
        </linearGradient>
        <linearGradient id="b" x1="42.129%" x2="42.129%" y1="7.637%" y2="100%">
            <stop offset="0%" stop-color="#FFF"/>
            <stop offset="100%" stop-color="#189BFF"/>
        </linearGradient>
        <linearGradient id="c" x1="50%" x2="50%" y1="0%" y2="107.548%">
            <stop offset="0%" stop-color="#EAF6FF"/>
            <stop offset="100%" stop-color="#40ACFF"/>
        </linearGradient>
        <path id="e" d="M31 64.5h48a1.5 1.5 0 0 0 0-3H31a1.5 1.5 0 0 0 0 3z"/>
        <filter id="d" width="152.9%" height="1000%" x="-26.5%" y="-350%" filterUnits="objectBoundingBox">
            <feOffset dy="3" in="SourceAlpha" result="shadowOffsetOuter1"/>
            <feGaussianBlur in="shadowOffsetOuter1" result="shadowBlurOuter1" stdDeviation="4"/>
            <feColorMatrix in="shadowBlurOuter1" values="0 0 0 0 0 0 0 0 0 0.412595114 0 0 0 0 0.727553216 0 0 0 0.08 0"/>
        </filter>
        <path id="g" d="M31 73.5h23a1.5 1.5 0 0 0 0-3H31a1.5 1.5 0 0 0 0 3z"/>
        <filter id="f" width="203.8%" height="1000%" x="-51.9%" y="-350%" filterUnits="objectBoundingBox">
            <feOffset dy="3" in="SourceAlpha" result="shadowOffsetOuter1"/>
            <feGaussianBlur in="shadowOffsetOuter1" result="shadowBlurOuter1" stdDeviation="4"/>
            <feColorMatrix in="shadowBlurOuter1" values="0 0 0 0 0 0 0 0 0 0.412595114 0 0 0 0 0.727553216 0 0 0 0.08 0"/>
        </filter>
        <path id="i" d="M32 84.5h32.394a1.5 1.5 0 0 0 0-3H32a1.5 1.5 0 0 0 0 3z"/>
        <filter id="h" width="176.3%" height="1000%" x="-38.1%" y="-350%" filterUnits="objectBoundingBox">
            <feOffset dy="3" in="SourceAlpha" result="shadowOffsetOuter1"/>
            <feGaussianBlur in="shadowOffsetOuter1" result="shadowBlurOuter1" stdDeviation="4"/>
            <feColorMatrix in="shadowBlurOuter1" values="0 0 0 0 0 0 0 0 0 0.412595114 0 0 0 0 0.727553216 0 0 0 0.08 0"/>
        </filter>
        <path id="k" d="M66.153 46.621l7.08-16.626 8.59 22.34 4.569-12.94 2.259 5.499H97a1.5 1.5 0 0 0 0-3h-6.339l-4.481-10.91-4.477 12.68-8.328-21.659-7.734 18.16-6.364-10.133-7.135 11.862H39a1.5 1.5 0 0 0 0 3h14.839l5.493-9.133 6.82 10.86z"/>
        <filter id="j" width="144.3%" height="189%" x="-22.1%" y="-34.6%" filterUnits="objectBoundingBox">
            <feOffset dy="3" in="SourceAlpha" result="shadowOffsetOuter1"/>
            <feGaussianBlur in="shadowOffsetOuter1" result="shadowBlurOuter1" stdDeviation="4"/>
            <feColorMatrix in="shadowBlurOuter1" values="0 0 0 0 0 0 0 0 0 0.412595114 0 0 0 0 0.727553216 0 0 0 0.2 0"/>
        </filter>
    </defs>
    <g fill="none" fill-rule="evenodd" opacity=".4">
        <path fill="url(#a)" d="M4 16h54.716a4 4 0 0 1 2.893 1.238l19.114 20.02a1 1 0 0 1 .277.69V113a4 4 0 0 1-4 4H4a4 4 0 0 1-4-4V20a4 4 0 0 1 4-4z" transform="translate(7 1)"/>
        <path fill="url(#b)" d="M24 0h54.716a4 4 0 0 1 2.893 1.238l19.114 20.02a1 1 0 0 1 .277.69V97a4 4 0 0 1-4 4H24a4 4 0 0 1-4-4V4a4 4 0 0 1 4-4z" transform="translate(7 1)"/>
        <path fill="url(#c)" d="M80.717.363l20.37 20.94A1 1 0 0 1 100.37 23H83a4 4 0 0 1-4-4V1.06a1 1 0 0 1 1.717-.697z" transform="translate(7 1)"/>
        <g opacity=".6" transform="translate(7 1)">
            <use fill="#000" filter="url(#d)" xlink:href="#e"/>
            <use fill="#FFF" xlink:href="#e"/>
        </g>
        <g opacity=".6" transform="translate(7 1)">
            <use fill="#000" filter="url(#f)" xlink:href="#g"/>
            <use fill="#FFF" xlink:href="#g"/>
        </g>
        <g opacity=".6" transform="translate(7 1)">
            <use fill="#000" filter="url(#h)" xlink:href="#i"/>
            <use fill="#FFF" xlink:href="#i"/>
        </g>
        <g>
            <use fill="#000" filter="url(#j)" xlink:href="#k"/>
            <use fill="#FFF" xlink:href="#k"/>
        </g>
    </g>
</svg>
