<?xml version="1.0" encoding="UTF-8"?>
<svg width="118px" height="118px" viewBox="0 0 118 118" version="1.1" xmlns="http://www.w3.org/2000/svg" xmlns:xlink="http://www.w3.org/1999/xlink">
    <!-- Generator: sketchtool 55.1 (78136) - https://sketchapp.com -->
    <title>3F259FB7-2369-499C-B315-AF60E1852362</title>
    <desc>Created with sketchtool.</desc>
    <defs>
        <linearGradient x1="50%" y1="0%" x2="50%" y2="100%" id="linearGradient-1">
            <stop stop-color="#189BFF" offset="0%"></stop>
            <stop stop-color="#FFFFFF" offset="100%"></stop>
        </linearGradient>
    </defs>
    <g id="Symbols" stroke="none" stroke-width="1" fill="none" fill-rule="evenodd">
        <g id="icn_heart">
            <g transform="translate(58.500000, 53.500000) scale(-1, 1) translate(-58.500000, -53.500000) ">
                <path d="M86.6984641,0 C71.4962632,0 61.3843655,12.7259379 58.5,19.2023295 C55.6156345,12.7259379 45.5038764,0 30.3015359,0 C8.59729311,0 -0.637731821,19.1885479 2.64617707,39.2502985 C9.50056008,81.1244776 58.5,107 58.5,107 C58.5,107 107.49944,81.1244776 114.353823,39.2502985 C117.637732,19.1885479 108.402707,0 86.6984641,0" id="Fill-1" fill="url(#linearGradient-1)" opacity="0.340000004"></path>
                <path d="M32.8097359,44.0310429 L42.7866164,69.825019 L53.4163002,47.0333268 L60.9562372,59.192142 L70.1490506,37.842983 L82.507915,67.4576486 L89.4730388,52.1321095 L92.668744,57.458008 L115,57.458008 C115.828427,57.458008 116.5,56.7864351 116.5,55.958008 C116.5,55.1295809 115.828427,54.458008 115,54.458008 L94.3672697,54.458008 L89.1058234,45.6893866 L82.6251422,59.9489942 L70.1922817,30.157017 L60.4751353,52.7238739 L53.0422529,40.7376937 L43.0442421,62.174981 L32.9627492,36.1105426 L25.0384831,54.458008 L2,54.458008 C1.17157288,54.458008 0.5,55.1295809 0.5,55.958008 C0.5,56.7864351 1.17157288,57.458008 2,57.458008 L27.0106328,57.458008 L32.8097359,44.0310429 Z" id="Path" fill="#FFFFFF" fill-rule="nonzero"></path>
            </g>
        </g>
    </g>
</svg>