<svg xmlns="http://www.w3.org/2000/svg" xmlns:xlink="http://www.w3.org/1999/xlink" width="118" height="118" viewBox="0 0 118 118">
    <defs>
        <linearGradient id="a" x1="50%" x2="50%" y1="24.028%" y2="100%">
            <stop offset="0%" stop-color="#40ACFF"/>
            <stop offset="100%" stop-color="#FFF"/>
        </linearGradient>
        <linearGradient id="b" x1="50%" x2="50%" y1="16.634%" y2="100%">
            <stop offset="0%" stop-color="#189BFF"/>
            <stop offset="100%" stop-color="#FFF"/>
        </linearGradient>
        <path id="d" d="M65 66.45c-.642-1.453-2.892-5.45-6.274-5.45-4.83 0-6.884 4.304-6.154 8.804C54.097 79.196 65 85 65 85s10.903-5.804 12.428-15.196c.73-4.5-1.324-8.804-6.154-8.804-3.382 0-5.632 3.997-6.274 5.45z"/>
        <filter id="c" width="207.4%" height="212.5%" x="-53.7%" y="-43.8%" filterUnits="objectBoundingBox">
            <feOffset dy="3" in="SourceAlpha" result="shadowOffsetOuter1"/>
            <feGaussianBlur in="shadowOffsetOuter1" result="shadowBlurOuter1" stdDeviation="4"/>
            <feColorMatrix in="shadowBlurOuter1" values="0 0 0 0 0 0 0 0 0 0.412595114 0 0 0 0 0.727553216 0 0 0 0.2 0"/>
        </filter>
        <path id="f" d="M74.425 68.303L79.728 63l2.121 2.121-5.303 5.304 5.303 5.303-2.121 2.121-5.303-5.303-5.304 5.303L67 75.728l5.303-5.303L67 65.12 69.121 63l5.304 5.303z"/>
        <filter id="e" width="281.8%" height="281.8%" x="-90.9%" y="-70.7%" filterUnits="objectBoundingBox">
            <feOffset dy="3" in="SourceAlpha" result="shadowOffsetOuter1"/>
            <feGaussianBlur in="shadowOffsetOuter1" result="shadowBlurOuter1" stdDeviation="4"/>
            <feComposite in="shadowBlurOuter1" in2="SourceAlpha" operator="out" result="shadowBlurOuter1"/>
            <feColorMatrix in="shadowBlurOuter1" values="0 0 0 0 0 0 0 0 0 0.412595114 0 0 0 0 0.727553216 0 0 0 0.12 0"/>
        </filter>
    </defs>
    <g fill="none" fill-rule="evenodd">
        <g opacity=".26">
            <path fill="url(#a)" d="M34.387 52.778c-7.04 4.46-11.985 11.99-12.885 20.827L19.324 95H0l2.364-24.169c1.001-10.243 9.613-18.053 19.905-18.053h12.118zM32 19c6.344 0 11.487 5.143 11.487 11.487v6.582c0 6.344-5.143 11.487-11.487 11.487s-11.487-5.143-11.487-11.487v-6.582C20.513 24.143 25.656 19 32 19z" opacity=".6" transform="translate(3)"/>
            <path fill="url(#b)" d="M64.598 0c9.762 0 17.676 7.913 17.676 17.675v7.532c0 9.762-7.914 17.675-17.676 17.675-9.761 0-17.675-7.913-17.675-17.675v-7.532C46.923 7.913 54.837 0 64.598 0zm-15.24 48.441h31.284c14.365 0 26.4 10.872 27.856 25.164L112 108H18l3.502-34.395c1.456-14.292 13.49-25.164 27.856-25.164z" transform="translate(3)"/>
            <g transform="translate(3)">
                <use fill="#000" filter="url(#c)" xlink:href="#d"/>
                <use fill="#FFF" xlink:href="#d"/>
            </g>
        </g>
        <g transform="translate(3)">
            <use fill="#000" filter="url(#e)" xlink:href="#f"/>
            <use fill="#189BFF" fill-opacity=".6" xlink:href="#f"/>
        </g>
    </g>
</svg>
