<svg xmlns="http://www.w3.org/2000/svg" width="118" height="118" viewBox="0 0 118 118">
    <defs>
        <linearGradient id="a" x1="50%" x2="50%" y1="0%" y2="100%">
            <stop offset="0%" stop-color="#FFF"/>
            <stop offset="100%" stop-color="#40ACFF"/>
        </linearGradient>
        <linearGradient id="b" x1="50%" x2="50%" y1="0%" y2="100%">
            <stop offset="0%" stop-color="#FFF"/>
            <stop offset="100%" stop-color="#189BFF"/>
        </linearGradient>
        <filter id="c" width="158.1%" height="219.4%" x="-29.1%" y="-59.7%" filterUnits="objectBoundingBox">
            <feOffset dy="3" in="SourceAlpha" result="shadowOffsetOuter1"/>
            <feGaussianBlur in="shadowOffsetOuter1" result="shadowBlurOuter1" stdDeviation="4"/>
            <feColorMatrix in="shadowBlurOuter1" result="shadowMatrixOuter1" values="0 0 0 0 0 0 0 0 0 0.412595114 0 0 0 0 0.727553216 0 0 0 0.12 0"/>
            <feMerge>
                <feMergeNode in="shadowMatrixOuter1"/>
                <feMergeNode in="SourceGraphic"/>
            </feMerge>
        </filter>
    </defs>
    <g fill="none" fill-rule="evenodd">
        <g opacity=".34">
            <path fill="url(#a)" d="M34.387 52.778c-7.04 4.46-11.985 11.99-12.885 20.827L19.324 95H0l2.364-24.169c1.001-10.243 9.613-18.053 19.905-18.053h12.118zM32 19c6.344 0 11.487 5.143 11.487 11.487v6.582c0 6.344-5.143 11.487-11.487 11.487s-11.487-5.143-11.487-11.487v-6.582C20.513 24.143 25.656 19 32 19z" opacity=".5" transform="translate(3)"/>
            <path fill="url(#b)" d="M46.598 0c9.762 0 17.676 7.913 17.676 17.675v7.532c0 9.762-7.914 17.675-17.676 17.675-9.761 0-17.675-7.913-17.675-17.675v-7.532C28.923 7.913 36.837 0 46.598 0zm-15.24 48.441h31.284c14.365 0 26.4 10.872 27.856 25.164L94 108H0l3.502-34.395C4.958 59.313 16.992 48.44 31.358 48.44z" transform="translate(21)"/>
        </g>
        <g fill="#007EDF" opacity=".8" transform="translate(24 66)">
            <rect width="19" height="2" y="5" rx="1" transform="rotate(-17 9.5 6)"/>
            <rect width="21" height="3" x="14.192" y="8.606" rx="1.5" transform="rotate(52 24.692 10.106)"/>
            <rect width="21" height="3" x="36.123" y="16.328" rx="1.5" transform="rotate(-41 46.623 17.828)"/>
        </g>
        <g fill="#8ECDFD" filter="url(#c)" transform="translate(20 62)">
            <circle cx="66" cy="8" r="8"/>
            <circle cx="41" cy="30" r="6"/>
            <circle cx="23" cy="7" r="4"/>
            <circle cx="4" cy="13" r="4"/>
        </g>
    </g>
</svg>
