<svg xmlns="http://www.w3.org/2000/svg" width="28" height="28" viewBox="0 0 28 28">
    <defs>
        <linearGradient id="a" x1="50%" x2="50%" y1="12.178%" y2="100%">
            <stop offset="0%" stop-color="#FF3C3C"/>
            <stop offset="100%" stop-color="#FF9288"/>
        </linearGradient>
    </defs>
    <g fill="none" fill-rule="evenodd">
        <circle cx="14" cy="14" r="14" fill="url(#a)"/>
        <path fill="#FFF" d="M14 19a1 1 0 1 1 0 2 1 1 0 0 1 0-2zm.883-11a1 1 0 0 1 .994 1.11l-.778 7a1 1 0 0 1-.994.89h-.21a1 1 0 0 1-.994-.89l-.778-7A1 1 0 0 1 13.117 8h1.766z"/>
    </g>
</svg>
