<svg xmlns="http://www.w3.org/2000/svg" width="16" height="16" viewBox="0 0 16 16">
    <g fill="none" fill-rule="evenodd">
        <g>
            <g>
                <g>
                    <path d="M0 0H16V16H0z" transform="translate(-920 -834) translate(520 810) translate(400 24)"/>
                    <path fill="#189BFF" d="M4.11 2.697L8 6.585l3.89-3.888c.39-.39 1.023-.39 1.413 0 .39.39.39 1.023 0 1.414L9.413 8l3.89 3.89c.39.39.39 1.023 0 1.413-.39.39-1.023.39-1.414 0L8 9.413l-3.888 3.89c-.39.39-1.024.39-1.414 0-.39-.39-.39-1.023 0-1.414L6.585 8 2.697 4.112c-.39-.39-.39-1.024 0-1.414.39-.39 1.023-.39 1.414 0z" transform="translate(-920 -834) translate(520 810) translate(400 24)"/>
                </g>
            </g>
        </g>
    </g>
</svg>
